# xmcd
#
# Track frame offsets:
#  150
#  17250
#  34246
#  47896
#  62435
#  82463
#  103292
#  118772
#  136953
#  152973
#  172408
#  190362
#  206870
#  221322
#  238283
#
# Disc length: 3346 seconds
#
# Revision: 1
# Processed by: cddbd v1.5.2PL0 Copyright (c) Steve Scherf et al.
# Submitted via: AltoMP3_Maker 3.0
#
DISCID=e80d100f
DTITLE=J.D. Hank - Just Country
DYEAR=2008
DGENRE=
TTITLE0=Texas Tattoo
TTITLE1=Past The Point of Rescue
TTITLE2=I Feel Lucky
TTITLE3=Till The Coast Is Clear
TTITLE4=Stranger In My House
TTITLE5=Amy's Back In Austin
TTITLE6=Trashy Women
TTITLE7=Queen Of Memphis
TTITLE8=I Am A Simple Man
TTITLE9=Dont Let Our Love Start Slippin Away
TTITLE10=Roll The Dice
TTITLE11=Tryin' To Get Over You
TTITLE12=She's Crazy For Leaving
TTITLE13=It's Five O'clock Somewhere
TTITLE14=Me Neither
EXTD=
EXTT0=
EXTT1=
EXTT2=
EXTT3=
EXTT4=
EXTT5=
EXTT6=
EXTT7=
EXTT8=
EXTT9=
EXTT10=
EXTT11=
EXTT12=
EXTT13=
EXTT14=
PLAYORDER=
